<svg width="334" height="113" xmlns="http://www.w3.org/2000/svg" xmlns:xlink="http://www.w3.org/1999/xlink" overflow="hidden"><defs><clipPath id="clip0"><rect x="112" y="180" width="334" height="113"/></clipPath></defs><g clip-path="url(#clip0)" transform="translate(-112 -180)"><path d="M-341.536 52.6897-341.536 55.7275C-341.536 62.3118-343.779 67.8109-348.338 72.2247-352.897 76.5691-358.903 78.7414-366.354 78.7414-374.097 78.7414-380.463 76.2099-385.528 71.1444-390.521 66.0088-393.048 59.7854-393.048 52.4767-393.048 45.168-390.516 38.9421-385.528 33.8816-380.463 28.746-374.097 26.212-366.5 26.212-361.981 26.1784-357.534 27.3527-353.619 29.6132-349.712 31.869-346.674 34.7514-344.576 38.4408L-350.363 41.842C-353.258 36.3429-359.552 32.7237-366.572 32.7237-372.36 32.7237-377.134 34.606-380.826 38.4408-384.516 42.2004-386.396 46.9049-386.396 52.4767-386.396 58.0484-384.516 62.753-380.826 66.5126-377.062 70.274-372.217 72.1545-366.289 72.1545-356.161 72.1545-349.647 66.6555-348.273 58.7703L-366.868 58.7703-366.868 52.6897Z" fill="#2BB673" transform="matrix(1.00154 0 0 1 505.656 153.812)"/><path d="M-327.718 47.697C-325.618 43.2105-321.858 40.9673-316.439 40.9673L-316.439 47.5516C-319.552 47.4087-322.156 48.2033-324.4 50.0129-326.643 51.8225-327.728 54.6422-327.728 58.6224L-327.728 77.7964-334.022 77.7964-334.022 41.6189-327.728 41.6189Z" fill="#2BB673" transform="matrix(1.00154 0 0 1 505.656 153.812)"/><path d="M-265.208 62.6026C-263.978 69.0416-258.985 72.8037-252.112 72.8037-247.335 72.8037-243.864 71.0667-241.693 67.5227L-236.339 70.5604C-239.883 75.9868-245.164 78.7364-252.258 78.7364-257.972 78.7364-262.677 76.9292-266.293 73.3827-269.838 69.7659-271.647 65.2067-271.647 59.7077-271.647 54.2813-269.91 49.7222-266.366 46.1054-262.822 42.4887-258.263 40.679-252.691 40.679-247.408 40.679-243.067 42.5588-239.738 46.3235-236.339 50.0129-234.675 54.4994-234.675 59.7804-234.675 60.7253-234.747 61.6687-234.891 62.6026ZM-265.208 57.1035-241.041 57.1035C-242.119 50.2284-246.901 46.6192-252.691 46.6192-259.413 46.6192-264.123 50.7347-265.208 57.1035Z" fill="#2BB673" transform="matrix(1.00154 0 0 1 505.656 153.812)"/><path d="M-196.39 55.5846-196.39 77.7964-202.683 77.7964-202.683 55.9456C-202.683 50.0856-206.085 46.6719-211.656 46.6719-217.95 46.6719-222.148 50.5067-222.148 58.6099L-222.148 77.7839-228.442 77.7839-228.442 41.6189-222.148 41.6189-222.148 46.8298C-219.614 42.7042-215.707 40.679-210.426 40.679-201.959 40.679-196.39 46.3936-196.39 55.5846Z" fill="#2BB673" transform="matrix(1.00154 0 0 1 505.656 153.812)"/><path d="M-182.564 33.8766C-177.499 28.741-171.286 26.207-163.969 26.207-156.653 26.207-150.435 28.741-145.374 33.8766-140.236 38.9421-137.705 45.1555-137.705 52.4717-137.705 59.7879-140.236 65.9311-145.374 71.0667-150.437 76.2049-156.653 78.7364-163.969 78.7364-171.286 78.7364-177.504 76.2049-182.564 71.0667-187.625 65.9286-190.161 59.7879-190.161 52.4717-190.161 45.1555-187.63 38.9421-182.564 33.8766ZM-150.076 38.4358C-153.766 34.601-158.398 32.7187-163.969 32.7187-169.541 32.7187-174.17 34.601-177.933 38.4358-181.624 42.1954-183.504 46.8999-183.504 52.4717-183.504 58.0434-181.624 62.6753-177.933 66.5076-174.173 70.2672-169.541 72.1495-163.969 72.1495-158.398 72.1495-153.766 70.2697-150.076 66.5076-146.317 62.6728-144.432 58.0409-144.432 52.4717-144.432 46.9024-146.314 42.1979-150.076 38.4358Z" fill="#2BB673" transform="matrix(1.00154 0 0 1 505.656 153.812)"/><path d="M-98.334 46.2508C-94.7874 49.9402-92.9778 54.4267-92.9778 59.7077-92.9778 64.9887-94.7874 69.5479-98.334 73.2423-101.881 76.9367-106.219 78.7414-111.285 78.7414-117.29 78.7414-121.848 76.3535-124.96 71.578L-124.96 92.2735-131.256 92.2735-131.256 41.6189-124.96 41.6189-124.96 47.8423C-121.848 43.0651-117.29 40.6773-111.285 40.679-106.219 40.679-101.878 42.5588-98.334 46.2508ZM-102.963 68.9689C-100.505 66.4374-99.2739 63.3971-99.2739 59.6952-99.2739 55.9932-100.505 52.9655-102.963 50.5067-105.425 47.9727-108.462 46.747-112.082 46.747-115.771 46.747-118.809 47.9752-121.27 50.5067-123.729 52.9655-124.96 56.0057-124.96 59.6952-124.96 63.3846-123.729 66.4249-121.27 68.9689-118.809 71.4302-115.771 72.6583-112.082 72.6583-108.462 72.6583-105.423 71.4284-102.963 68.9689Z" fill="#2BB673" transform="matrix(1.00154 0 0 1 505.656 153.812)"/><path d="M-74.1596 56.8128C-68.5177 58.0434-60.991 60.1413-61.0637 67.8836-61.0637 71.1419-62.367 73.8163-64.8985 75.7713-67.4299 77.7263-70.6156 78.7364-74.5958 78.7364-81.6137 78.7364-86.8947 75.4078-88.9926 70.2722L-83.5662 67.1718C-82.4082 70.6432-79.0096 72.8137-74.5958 72.8137-70.4702 72.8137-67.4324 71.2948-67.4324 67.8936-67.4324 65.0714-70.6156 63.4798-74.5958 62.5399-80.3104 61.021-87.6917 59.1387-87.6917 51.4691-87.6917 48.3587-86.4611 45.7545-84.0725 43.7268-81.6137 41.7016-78.5734 40.6891-74.884 40.6891-69.024 40.6891-64.1766 43.5113-61.8507 48.2083L-67.1317 51.1759C-68.435 48.0629-71.0392 46.544-74.874 46.544-78.4205 46.544-81.3129 48.281-81.3129 51.3914-81.323 54.2086-78.1398 55.7275-74.1596 56.8128Z" fill="#2BB673" transform="matrix(1.00154 0 0 1 505.656 153.812)"/><path d="M109.357 41.639 116.754 41.639 116.754 41.639 116.754 49.0354C116.754 50.9333 115.215 52.4717 113.317 52.4717L105.918 52.4717 105.918 52.4717 105.918 45.0753C105.918 43.1774 107.457 41.639 109.355 41.639 109.355 41.639 109.356 41.639 109.357 41.639Z" fill="#02023F" transform="matrix(1.00154 0 0 1 112 180.019)"/><path d="M-276.302 59.7804C-276.302 54.537-277.973 50.0512-281.314 46.3235-284.655 42.5957-288.974 40.7309-294.268 40.7292-299.849 40.7292-304.393 42.5338-307.905 46.143-311.416 49.7522-313.171 54.2738-313.168 59.7077-313.168 65.1917-311.376 69.7258-307.792 73.31-304.208 76.8941-299.554 78.6862-293.829 78.6862-293.328 78.6862-292.859 78.6411-292.378 78.6135L-292.378 72.7059C-292.806 72.7385-293.232 72.7686-293.684 72.7686-297.102 72.7686-299.977 71.8788-302.308 70.0993-304.639 68.3197-306.118 65.8183-306.747 62.5951L-276.51 62.5951C-276.372 61.6632-276.302 60.7225-276.302 59.7804ZM-306.754 57.111C-306.223 53.9362-304.852 51.3982-302.639 49.4966-300.426 47.595-297.636 46.645-294.27 46.6468-291.505 46.6044-288.819 47.5511-286.691 49.3161-284.528 51.0957-283.182 53.6941-282.65 57.111Z" fill="#2BB673" transform="matrix(1.00154 0 0 1 505.656 153.812)"/><path d="M-215.912 100.72-59.5648 100.72-59.5648 100.72-59.5648 134.446C-59.5648 137.056-61.68 139.171-64.2894 139.171L-220.637 139.171-220.637 139.171-220.637 105.445C-220.637 102.835-218.522 100.72-215.912 100.72Z" fill="#02023F" transform="matrix(-1.00154 0 0 -1 225.022 393.701)"/><path d="M209.944 93.7147 217.331 93.7147 217.331 91.5366 209.944 91.5366 209.944 86.1553 217.957 86.1553 217.957 83.9522 207.616 83.9522 207.616 101.477 218.083 101.477 218.083 99.2739 209.944 99.2739 209.944 93.7147Z" fill="#FFFFFF" transform="matrix(1.00154 0 0 1 112 180.019)"/><path d="M231.251 88.96 228.697 88.96 225.464 93.3061 222.238 88.96 219.659 88.96 224.178 95.033 219.384 101.477 221.938 101.477 225.457 96.7499 228.973 101.477 231.527 101.477 226.74 95.0255 231.251 88.96Z" fill="#FFFFFF" transform="matrix(1.00154 0 0 1 112 180.019)"/><path d="M-152.588 114.841C-154.658 114.841-156.235 115.668-157.32 117.32L-157.32 115.167-159.498 115.167-159.498 132.692-157.32 132.692-157.32 125.531C-156.235 127.185-154.658 128.012-152.588 128.01-150.891 128.032-149.263 127.337-148.106 126.095-146.884 124.852-146.216 123.168-146.254 121.426-146.216 119.683-146.884 117.999-148.106 116.756-149.263 115.514-150.891 114.819-152.588 114.841ZM-149.708 124.616C-150.535 125.466-151.678 125.933-152.863 125.904-154.056 125.936-155.209 125.469-156.044 124.616-156.888 123.771-157.349 122.617-157.32 121.423-157.349 120.229-156.888 119.075-156.044 118.23-155.209 117.377-154.056 116.91-152.863 116.942-151.678 116.913-150.535 117.38-149.708 118.23-148.864 119.075-148.403 120.229-148.432 121.423-148.402 122.618-148.863 123.773-149.708 124.619Z" fill="#FFFFFF" transform="matrix(1.00154 0 0 1 505.656 153.812)"/><path d="M-126.874 117.27-126.874 115.167-129.053 115.167-129.053 127.684-126.874 127.684-126.874 121.06C-126.874 119.691-126.491 118.698-125.724 118.079-124.945 117.459-123.96 117.156-122.967 117.23L-122.967 114.951C-124.855 114.945-126.158 115.718-126.874 117.27Z" fill="#FFFFFF" transform="matrix(1.00154 0 0 1 505.656 153.812)"/><path d="M-117.049 111.661-119.227 112.312-119.227 115.167-121.706 115.167-121.706 117.27-119.227 117.27-119.227 124.067C-119.227 125.619-118.785 126.676-117.899 127.235-117.013 127.795-115.62 127.949-113.718 127.697L-113.718 125.744C-114.452 125.779-115.069 125.792-115.571 125.782-115.982 125.808-116.386 125.663-116.686 125.381-116.937 125.13-117.049 124.684-117.049 124.067L-117.049 117.27-113.718 117.27-113.718 115.167-117.049 115.167Z" fill="#FFFFFF" transform="matrix(1.00154 0 0 1 505.656 153.812)"/><path d="M281.901 88.96 284.079 88.96 284.079 101.48 281.901 101.48Z" fill="#2987F8" transform="matrix(1.00154 0 0 1 112 180.019)"/><path d="M-92.1231 114.841C-93.8776 114.841-95.1884 115.55-96.0556 116.969-96.8226 115.55-98.049 114.841-99.7351 114.841-101.371 114.841-102.615 115.51-103.467 116.846L-103.467 115.17-105.645 115.17-105.645 127.687-103.467 127.687-103.467 120.724C-103.467 119.455-103.162 118.505-102.552 117.871-101.958 117.243-101.126 116.897-100.261 116.919-99.5275 116.884-98.8165 117.178-98.3214 117.721-97.8452 118.255-97.6071 119.004-97.6071 119.977L-97.6071 127.687-95.429 127.687-95.429 120.724C-95.429 119.44-95.1483 118.483-94.5894 117.859-94.0197 117.228-93.1983 116.883-92.3487 116.919-91.596 116.885-90.8654 117.177-90.3435 117.721-89.8423 118.254-89.5916 119.006-89.5916 119.977L-89.5916 127.687-87.4135 127.687-87.4135 119.899C-87.4135 118.345-87.8479 117.114-88.7169 116.205-89.5858 115.296-90.7213 114.841-92.1231 114.841Z" fill="#2987F8" transform="matrix(1.00154 0 0 1 505.656 153.812)"/><path d="M-135.314 125.446-135.314 128.015-132.744 128.015C-132.086 128.015-131.551 127.481-131.551 126.822-131.551 126.821-131.551 126.82-131.551 126.819L-131.551 124.253-134.12 124.253C-134.779 124.253-135.314 124.787-135.314 125.446Z" fill="#2987F8" transform="matrix(1.00154 0 0 1 505.656 153.812)"/><path d="M-140.585 125.035C-141.411 124.393-141.962 123.461-142.126 122.428L-131.627 122.428C-131.577 122.105-131.552 121.778-131.551 121.451-131.516 119.727-132.139 118.056-133.293 116.776-134.429 115.492-136.077 114.781-137.79 114.834-139.73 114.834-141.309 115.46-142.527 116.713-143.745 117.967-144.355 119.537-144.357 121.426-144.357 123.33-143.734 124.905-142.489 126.15-141.244 127.395-139.628 128.017-137.639 128.017-137.467 128.017-137.304 128.002-137.138 127.992L-137.138 125.94C-137.289 125.94-137.436 125.962-137.592 125.962-138.665 125.998-139.719 125.671-140.585 125.035ZM-140.697 117.879C-139.883 117.202-138.848 116.85-137.79 116.889-136.83 116.875-135.897 117.204-135.158 117.816-134.408 118.435-133.941 119.337-133.757 120.523L-142.113 120.523C-141.976 119.5-141.473 118.561-140.697 117.879Z" fill="#FFFFFF" transform="matrix(1.00154 0 0 1 505.656 153.812)"/><path d="M-74.8439 124.253C-75.5031 124.253-76.0379 124.787-76.0395 125.446L-76.0395 128.015-73.4704 128.015C-72.8102 128.015-72.2748 127.48-72.2748 126.819L-72.2748 124.253Z" fill="#FFFFFF" transform="matrix(1.00154 0 0 1 505.656 153.812)"/><path d="M-81.3104 125.035C-82.135 124.392-82.686 123.46-82.8519 122.428L-72.35 122.428C-72.3006 122.105-72.2756 121.778-72.2748 121.451-72.239 119.727-72.8621 118.056-74.0168 116.776-75.1529 115.492-76.8019 114.78-78.5158 114.834-80.4557 114.834-82.0348 115.46-83.2529 116.713-84.471 117.967-85.0808 119.537-85.0826 121.426-85.0826 123.33-84.4602 124.905-83.2153 126.15-81.9704 127.395-80.3537 128.017-78.3654 128.017-78.1925 128.017-78.0295 128.002-77.8641 127.992L-77.8641 125.94C-78.012 125.94-78.1624 125.962-78.3178 125.962-79.3913 125.998-80.4452 125.671-81.3104 125.035ZM-81.4232 117.879C-80.6089 117.202-79.5737 116.85-78.5158 116.889-77.5561 116.875-76.6227 117.203-75.8841 117.816-75.1321 118.435-74.6642 119.337-74.4805 120.523L-82.8519 120.523C-82.7108 119.498-82.2032 118.559-81.4232 117.879Z" fill="#2987F8" transform="matrix(1.00154 0 0 1 505.656 153.812)"/><path d="M-110.051 109.959C-110.448 109.95-110.829 110.109-111.102 110.397-111.378 110.672-111.532 111.046-111.528 111.435-111.533 111.821-111.379 112.193-111.102 112.463-110.825 112.743-110.445 112.897-110.051 112.889-109.665 112.894-109.293 112.74-109.024 112.463-108.746 112.193-108.592 111.821-108.598 111.435-108.594 111.046-108.747 110.672-109.024 110.397-109.289 110.112-109.662 109.953-110.051 109.959Z" fill="#FFFFFF" transform="matrix(1.00154 0 0 1 505.656 153.812)"/><path d="M-201.332 120.934C-200.591 121.691-200.185 122.713-200.204 123.772-200.185 124.835-200.591 125.863-201.332 126.626-202.038 127.382-203.031 127.802-204.064 127.784-205.227 127.84-206.329 127.265-206.949 126.28L-206.949 127.576-208.283 127.576-208.283 116.906-206.957 116.906-206.957 121.27C-206.336 120.286-205.234 119.711-204.072 119.766-203.035 119.751-202.039 120.175-201.332 120.934ZM-202.31 125.724C-201.796 125.206-201.515 124.501-201.533 123.772-201.513 123.046-201.794 122.344-202.31 121.834-202.81 121.311-203.508 121.023-204.232 121.042-204.961 121.02-205.665 121.308-206.17 121.834-206.686 122.344-206.969 123.046-206.949 123.772-206.966 124.501-206.685 125.206-206.17 125.724-205.659 126.241-204.958 126.523-204.232 126.504-203.511 126.52-202.816 126.238-202.31 125.724Z" fill="#FFFFFF" transform="matrix(1.00154 0 0 1 505.656 153.812)"/><path d="M-193.598 119.957-192.179 119.957-195.292 128.06C-195.949 129.784-197.154 130.744-198.678 130.637L-198.678 129.401C-197.749 129.479-197.063 128.961-196.62 127.844L-196.482 127.556-199.808 119.957-198.39 119.957-195.796 125.94Z" fill="#FFFFFF" transform="matrix(1.00154 0 0 1 505.656 153.812)"/></g></svg>